<?xml version="1.0" ?><!DOCTYPE svg  PUBLIC '-//W3C//DTD SVG 1.1//EN'  'http://www.w3.org/Graphics/SVG/1.1/DTD/svg11.dtd'><svg id="Lager_1" style="enable-background:new -265 388.9 64 64;" version="1.1" viewBox="-265 388.9 64 64" xml:space="preserve" xmlns="http://www.w3.org/2000/svg" xmlns:xlink="http://www.w3.org/1999/xlink"><path d="M-211.4,400.9h-43.2c-0.8,0-1.4,0.6-1.4,1.4v34.5c0,0.8,0.6,1.4,1.4,1.4h7.1v8.7l7.5-8.6h28.5c0.8,0,1.4-0.6,1.4-1.4v-34.6  C-210,401.5-210.6,400.9-211.4,400.9z M-233,415.3c2.2,0,4,1.8,4,4c0,2.2-1.8,4-4,4s-4-1.8-4-4C-237,417.1-235.2,415.3-233,415.3z   M-242.7,415.3c2.2,0,4,1.8,4,4c0,2.2-1.8,4-4,4s-4-1.8-4-4C-246.7,417.1-244.9,415.3-242.7,415.3z M-223.3,423.2c-2.2,0-4-1.8-4-4  s1.8-4,4-4s4,1.8,4,4S-221.1,423.2-223.3,423.2z"/></svg>